<svg xmlns="http://www.w3.org/2000/svg" width="500" height="500" viewBox="0 0 500 500" version="1.1"><path d="M 231 2.614 C 223.218 3.316, 200.856 7.057, 192 9.139 C 142.774 20.710, 96.942 48.215, 63.553 86.225 C 37.872 115.459, 19.013 150.517, 10.088 185.618 C -0.439 227.016, -1.221 257.430, 7.160 299.500 C 25.876 393.457, 97.578 468.074, 191.173 490.994 C 214.236 496.642, 222.191 497.503, 251 497.469 C 279.652 497.435, 285.129 496.831, 310.296 490.924 C 343.212 483.199, 377.465 466.487, 404.500 444.961 C 448.601 409.846, 478.882 362.728, 492.558 307.941 C 498.720 283.253, 499.394 277.456, 499.355 249.500 C 499.314 220.252, 498.477 213.793, 491.195 186.500 C 485.764 166.144, 482.077 156.422, 472.970 138.441 C 460.478 113.777, 447.106 95.199, 428 75.964 C 397.209 44.964, 356.309 21.224, 315.188 10.482 C 294.653 5.117, 277.960 2.875, 256 2.530 C 244.725 2.353, 233.475 2.390, 231 2.614 M 234 15.648 C 212.461 17.664, 195.403 21.263, 174.737 28.153 C 92.003 55.733, 34.124 123.702, 17.331 213 C 15.903 220.592, 15.541 227.821, 15.527 249 C 15.506 283.427, 17.451 295.741, 27.695 326 C 39.581 361.112, 59.239 392.319, 85.659 418.017 C 96.384 428.449, 118.332 446.039, 122.730 447.727 C 123.698 448.098, 128.092 450.638, 132.495 453.371 C 152.807 465.980, 183.258 477.063, 213 482.671 C 226.767 485.267, 274.233 485.267, 288 482.671 C 340.750 472.724, 384.465 449.937, 419.095 414.336 C 442.758 390.009, 460.549 361.746, 472.017 330.263 C 482.166 302.402, 486.282 279.189, 486.339 249.500 C 486.398 218.647, 482.774 199.253, 470.549 165 C 457.546 128.567, 427.709 88.973, 394.229 63.723 C 385.974 57.497, 359.987 41, 358.436 41 C 358.231 41, 354.472 39.245, 350.083 37.100 C 338.854 31.613, 310.808 22.519, 296 19.564 C 276.367 15.646, 251.079 14.049, 234 15.648 M 225.500 55.043 C 184.376 62.462, 152.485 78.144, 127.847 103.063 C 116.795 114.241, 115.883 115.484, 110.152 127.174 C 103.430 140.886, 99.778 153.586, 98.065 169.211 C 96.167 186.514, 96.954 223.241, 99.564 239.248 C 100.067 242.334, 99.851 243.093, 98.338 243.545 C 84.067 247.810, 73.714 261.189, 72.380 277.088 C 70.947 294.177, 77.069 311.488, 88.355 322.261 C 94.282 327.918, 104.519 334, 108.114 334 C 109.407 334, 110.091 335.050, 110.558 337.750 C 114.702 361.729, 124.525 382.288, 139.928 399.220 C 145.709 405.575, 160.542 416.815, 170 422.008 C 179.519 427.234, 202.836 437.395, 213.865 441.123 C 226.757 445.481, 236.619 447, 252.022 447 C 267.965 447, 276.328 445.612, 290.680 440.585 C 302.301 436.515, 323.751 426.989, 333.224 421.692 C 358.348 407.641, 377.349 385.196, 385.871 359.500 C 387.513 354.550, 389.534 347.177, 390.363 343.115 C 391.192 339.053, 392.237 335.416, 392.685 335.033 C 393.133 334.650, 395.402 333.796, 397.726 333.136 C 403.516 331.489, 415.838 321.457, 420.269 314.782 C 425.134 307.453, 427.469 301.163, 428.968 291.348 C 432.421 268.750, 421.888 249.502, 402.870 243.656 C 401.516 243.240, 401.381 242.424, 402.071 238.827 C 402.528 236.447, 403.462 224.522, 404.147 212.326 C 405.512 187.998, 404.375 160.052, 401.468 146.500 C 395.657 119.408, 378.957 101.861, 352.907 95.477 C 346.485 93.903, 345.764 93.458, 343.980 89.961 C 338.751 79.711, 322.329 66.660, 307.392 60.882 C 292.052 54.948, 284.763 53.812, 259.500 53.417 C 239.848 53.111, 234.899 53.347, 225.500 55.043 M 302.880 160.001 C 296.999 163.109, 277.436 168.640, 264 170.995 C 247.501 173.885, 213.734 174.784, 187.936 173.020 C 166.359 171.544, 161.077 172.378, 155.075 178.211 C 150.432 182.723, 148.595 187.355, 145.442 202.500 C 142.223 217.963, 137.552 229.444, 127.238 247.244 L 119.854 259.987 120.972 292.244 C 122.345 331.852, 123.458 340.545, 129.131 355.982 C 134.967 371.861, 147.257 389.566, 159.173 399.260 C 165.639 404.520, 177.879 411.475, 193 418.481 C 238.859 439.730, 267.290 439.169, 314.377 416.089 C 335.124 405.919, 340.817 402.036, 351.749 390.601 C 359.135 382.875, 361.691 379.308, 366.252 370.361 C 377.553 348.190, 379.589 337.338, 380.855 292.500 L 381.786 259.500 375.559 248 C 365.548 229.512, 364.376 225.895, 359.218 197.556 C 358.589 194.101, 357.558 192.924, 350.902 188.056 C 335.818 177.026, 331.383 173.484, 324.394 166.883 C 315.027 158.039, 309.774 156.358, 302.880 160.001 M 181 223.635 C 170.187 225.686, 161 231.298, 161 235.851 C 161 239.215, 163.724 242, 167.013 242 C 168.309 242, 171.423 240.988, 173.934 239.750 C 177.595 237.946, 180.186 237.503, 187 237.514 C 194.671 237.526, 196.152 237.859, 202.183 240.923 C 208.692 244.230, 208.934 244.273, 211.487 242.601 C 218.716 237.864, 214.495 231.036, 201.216 225.990 C 196.042 224.024, 185.453 222.791, 181 223.635 M 308 224.115 C 301.036 225.258, 290.448 230.386, 288.308 233.653 C 286.183 236.895, 287.503 240.995, 291.248 242.790 C 293.681 243.956, 294.625 243.757, 300.725 240.793 C 306.545 237.964, 308.557 237.500, 315 237.500 C 321.153 237.500, 323.619 238.017, 328.730 240.378 C 334.608 243.092, 335.100 243.165, 337.405 241.654 C 340.935 239.341, 341.601 236.285, 339.262 233.130 C 334.078 226.138, 320.150 222.122, 308 224.115 M 94.476 260.155 C 89.804 264.257, 87.059 269.770, 85.863 277.451 C 83.967 289.630, 89.832 306.098, 99.021 314.400 C 103.125 318.108, 107.619 320.714, 108.459 319.874 C 108.707 319.626, 108.475 305.941, 107.943 289.462 C 107.098 263.288, 106.763 259.342, 105.297 258.250 C 102.384 256.082, 98.296 256.802, 94.476 260.155 M 396.215 258.750 C 394.316 260.405, 394.174 262.136, 393.577 290.750 C 393.230 307.387, 393.256 321, 393.635 321 C 394.015 321, 396.570 319.559, 399.314 317.798 C 405.380 313.906, 413.145 302.601, 415.118 294.789 C 415.852 291.880, 416.397 286.350, 416.328 282.500 C 416.134 271.690, 412.905 264.594, 405.790 259.345 C 402.006 256.553, 398.951 256.364, 396.215 258.750 M 181.225 260.004 C 177.474 262.291, 176 265.425, 176 271.115 C 176 276.715, 178.203 280.337, 182.897 282.453 C 190.479 285.872, 198.300 282.716, 200.969 275.159 C 205.073 263.540, 191.949 253.466, 181.225 260.004 M 305.898 260.280 C 298.650 265.143, 298.692 276.815, 305.975 281.750 C 313.135 286.602, 323.122 283.390, 325.930 275.332 C 327.215 271.642, 327.179 270.756, 325.565 266.530 C 322.422 258.301, 313.210 255.374, 305.898 260.280 M 247.200 284.200 C 246.540 284.860, 246 286.654, 246 288.186 C 246 290.330, 246.925 291.584, 250.017 293.630 C 254.654 296.699, 255.961 300.191, 253.873 303.931 C 252.843 305.773, 251.457 306.593, 248.969 306.828 C 242.716 307.420, 239.841 312.698, 243.680 316.537 C 245.947 318.804, 255.033 318.093, 258.791 315.356 C 262.342 312.770, 266.003 305.489, 265.990 301.038 C 265.977 296.392, 261.966 287.905, 258.490 285.171 C 255.440 282.772, 249.168 282.232, 247.200 284.200 M 281.664 344.049 C 277.875 347.030, 267.320 351.584, 261.201 352.879 C 250.049 355.238, 236.034 353.609, 226.753 348.874 C 222.001 346.450, 219.502 347.122, 218.078 351.207 C 216.546 355.601, 218.617 358.339, 225.392 360.874 C 244.408 367.989, 270.001 365.744, 285.247 355.624 C 291.976 351.158, 294.205 346.989, 291.477 343.974 C 289.169 341.424, 284.961 341.456, 281.664 344.049" stroke="none" fill="#3f464a" fill-rule="evenodd"/><path d="M 234 15.648 C 212.461 17.664, 195.403 21.263, 174.737 28.153 C 92.003 55.733, 34.124 123.702, 17.331 213 C 15.903 220.592, 15.541 227.821, 15.527 249 C 15.506 283.427, 17.451 295.741, 27.695 326 C 39.581 361.112, 59.239 392.319, 85.659 418.017 C 96.384 428.449, 118.332 446.039, 122.730 447.727 C 123.698 448.098, 128.092 450.638, 132.495 453.371 C 152.807 465.980, 183.258 477.063, 213 482.671 C 226.767 485.267, 274.233 485.267, 288 482.671 C 340.750 472.724, 384.465 449.937, 419.095 414.336 C 442.758 390.009, 460.549 361.746, 472.017 330.263 C 482.166 302.402, 486.282 279.189, 486.339 249.500 C 486.398 218.647, 482.774 199.253, 470.549 165 C 457.546 128.567, 427.709 88.973, 394.229 63.723 C 385.974 57.497, 359.987 41, 358.436 41 C 358.231 41, 354.472 39.245, 350.083 37.100 C 338.854 31.613, 310.808 22.519, 296 19.564 C 276.367 15.646, 251.079 14.049, 234 15.648 M 225.500 55.043 C 184.376 62.462, 152.485 78.144, 127.847 103.063 C 116.795 114.241, 115.883 115.484, 110.152 127.174 C 103.430 140.886, 99.778 153.586, 98.065 169.211 C 96.167 186.514, 96.954 223.241, 99.564 239.248 C 100.067 242.334, 99.851 243.093, 98.338 243.545 C 84.067 247.810, 73.714 261.189, 72.380 277.088 C 70.947 294.177, 77.069 311.488, 88.355 322.261 C 94.282 327.918, 104.519 334, 108.114 334 C 109.407 334, 110.091 335.050, 110.558 337.750 C 114.702 361.729, 124.525 382.288, 139.928 399.220 C 145.709 405.575, 160.542 416.815, 170 422.008 C 179.519 427.234, 202.836 437.395, 213.865 441.123 C 226.757 445.481, 236.619 447, 252.022 447 C 267.965 447, 276.328 445.612, 290.680 440.585 C 302.301 436.515, 323.751 426.989, 333.224 421.692 C 358.348 407.641, 377.349 385.196, 385.871 359.500 C 387.513 354.550, 389.534 347.177, 390.363 343.115 C 391.192 339.053, 392.237 335.416, 392.685 335.033 C 393.133 334.650, 395.402 333.796, 397.726 333.136 C 403.516 331.489, 415.838 321.457, 420.269 314.782 C 425.134 307.453, 427.469 301.163, 428.968 291.348 C 432.421 268.750, 421.888 249.502, 402.870 243.656 C 401.516 243.240, 401.381 242.424, 402.071 238.827 C 402.528 236.447, 403.462 224.522, 404.147 212.326 C 405.512 187.998, 404.375 160.052, 401.468 146.500 C 395.657 119.408, 378.957 101.861, 352.907 95.477 C 346.485 93.903, 345.764 93.458, 343.980 89.961 C 338.751 79.711, 322.329 66.660, 307.392 60.882 C 292.052 54.948, 284.763 53.812, 259.500 53.417 C 239.848 53.111, 234.899 53.347, 225.500 55.043 M 302.880 160.001 C 296.999 163.109, 277.436 168.640, 264 170.995 C 247.501 173.885, 213.734 174.784, 187.936 173.020 C 166.359 171.544, 161.077 172.378, 155.075 178.211 C 150.432 182.723, 148.595 187.355, 145.442 202.500 C 142.223 217.963, 137.552 229.444, 127.238 247.244 L 119.854 259.987 120.972 292.244 C 122.345 331.852, 123.458 340.545, 129.131 355.982 C 134.967 371.861, 147.257 389.566, 159.173 399.260 C 165.639 404.520, 177.879 411.475, 193 418.481 C 238.859 439.730, 267.290 439.169, 314.377 416.089 C 335.124 405.919, 340.817 402.036, 351.749 390.601 C 359.135 382.875, 361.691 379.308, 366.252 370.361 C 377.553 348.190, 379.589 337.338, 380.855 292.500 L 381.786 259.500 375.559 248 C 365.548 229.512, 364.376 225.895, 359.218 197.556 C 358.589 194.101, 357.558 192.924, 350.902 188.056 C 335.818 177.026, 331.383 173.484, 324.394 166.883 C 315.027 158.039, 309.774 156.358, 302.880 160.001 M 181 223.635 C 170.187 225.686, 161 231.298, 161 235.851 C 161 239.215, 163.724 242, 167.013 242 C 168.309 242, 171.423 240.988, 173.934 239.750 C 177.595 237.946, 180.186 237.503, 187 237.514 C 194.671 237.526, 196.152 237.859, 202.183 240.923 C 208.692 244.230, 208.934 244.273, 211.487 242.601 C 218.716 237.864, 214.495 231.036, 201.216 225.990 C 196.042 224.024, 185.453 222.791, 181 223.635 M 308 224.115 C 301.036 225.258, 290.448 230.386, 288.308 233.653 C 286.183 236.895, 287.503 240.995, 291.248 242.790 C 293.681 243.956, 294.625 243.757, 300.725 240.793 C 306.545 237.964, 308.557 237.500, 315 237.500 C 321.153 237.500, 323.619 238.017, 328.730 240.378 C 334.608 243.092, 335.100 243.165, 337.405 241.654 C 340.935 239.341, 341.601 236.285, 339.262 233.130 C 334.078 226.138, 320.150 222.122, 308 224.115 M 94.476 260.155 C 89.804 264.257, 87.059 269.770, 85.863 277.451 C 83.967 289.630, 89.832 306.098, 99.021 314.400 C 103.125 318.108, 107.619 320.714, 108.459 319.874 C 108.707 319.626, 108.475 305.941, 107.943 289.462 C 107.098 263.288, 106.763 259.342, 105.297 258.250 C 102.384 256.082, 98.296 256.802, 94.476 260.155 M 396.215 258.750 C 394.316 260.405, 394.174 262.136, 393.577 290.750 C 393.230 307.387, 393.256 321, 393.635 321 C 394.015 321, 396.570 319.559, 399.314 317.798 C 405.380 313.906, 413.145 302.601, 415.118 294.789 C 415.852 291.880, 416.397 286.350, 416.328 282.500 C 416.134 271.690, 412.905 264.594, 405.790 259.345 C 402.006 256.553, 398.951 256.364, 396.215 258.750 M 181.225 260.004 C 177.474 262.291, 176 265.425, 176 271.115 C 176 276.715, 178.203 280.337, 182.897 282.453 C 190.479 285.872, 198.300 282.716, 200.969 275.159 C 205.073 263.540, 191.949 253.466, 181.225 260.004 M 305.898 260.280 C 298.650 265.143, 298.692 276.815, 305.975 281.750 C 313.135 286.602, 323.122 283.390, 325.930 275.332 C 327.215 271.642, 327.179 270.756, 325.565 266.530 C 322.422 258.301, 313.210 255.374, 305.898 260.280 M 247.200 284.200 C 246.540 284.860, 246 286.654, 246 288.186 C 246 290.330, 246.925 291.584, 250.017 293.630 C 254.654 296.699, 255.961 300.191, 253.873 303.931 C 252.843 305.773, 251.457 306.593, 248.969 306.828 C 242.716 307.420, 239.841 312.698, 243.680 316.537 C 245.947 318.804, 255.033 318.093, 258.791 315.356 C 262.342 312.770, 266.003 305.489, 265.990 301.038 C 265.977 296.392, 261.966 287.905, 258.490 285.171 C 255.440 282.772, 249.168 282.232, 247.200 284.200 M 281.664 344.049 C 277.875 347.030, 267.320 351.584, 261.201 352.879 C 250.049 355.238, 236.034 353.609, 226.753 348.874 C 222.001 346.450, 219.502 347.122, 218.078 351.207 C 216.546 355.601, 218.617 358.339, 225.392 360.874 C 244.408 367.989, 270.001 365.744, 285.247 355.624 C 291.976 351.158, 294.205 346.989, 291.477 343.974 C 289.169 341.424, 284.961 341.456, 281.664 344.049" stroke="none" fill="#f9f9f9" fill-rule="evenodd"/></svg>