<svg version="1.1" id="Layer_1" xmlns="http://www.w3.org/2000/svg" xmlns:xlink="http://www.w3.org/1999/xlink" x="0px" y="0px"
	 width="100%" viewBox="0 0 1024 1024" enable-background="new 0 0 1024 1024" xml:space="preserve">
<path fill="#FFFFFF" opacity="1.000000" stroke="none" 
	d="
M480.468658,1025.000000 
	C473.005310,1022.479492 465.537750,1023.148193 458.359131,1021.771667 
	C435.700378,1017.426758 413.865265,1010.379639 392.508301,1001.815796 
	C357.866150,987.924744 323.939697,972.458435 291.792999,953.419250 
	C252.464752,930.126770 220.257767,899.327332 195.547150,860.728760 
	C179.070999,834.992615 166.936646,807.483032 159.060455,777.923279 
	C155.532928,764.684143 152.948929,751.340881 150.992462,737.844666 
	C150.505005,734.482056 149.213638,732.978577 145.976944,732.136658 
	C113.382812,723.658630 89.992050,703.461121 72.726707,675.091980 
	C57.699139,650.399780 51.352882,623.527283 52.011192,595.008301 
	C52.726543,564.018127 62.324757,536.483032 86.129288,515.179321 
	C95.744637,506.574158 106.491051,500.149109 119.387245,497.983490 
	C122.429047,497.472717 123.421310,496.657227 123.064201,493.191711 
	C118.762886,451.450043 114.705742,409.682739 115.913040,367.625458 
	C116.802345,336.645844 118.700760,305.746979 124.021149,275.160645 
	C134.209122,216.591217 160.986877,167.056351 204.293655,126.199982 
	C244.884964,87.905426 291.954407,60.289780 343.525330,39.882034 
	C383.526428,24.052717 425.005524,13.565699 467.641785,8.359931 
	C503.250275,4.012232 538.993835,3.456048 574.833313,7.381975 
	C596.592712,9.765550 618.259155,12.447779 639.155396,18.834208 
	C674.796936,29.727198 707.573181,46.017914 733.768188,73.438110 
	C743.823669,83.963875 752.397278,95.672722 759.629150,108.274483 
	C761.778320,112.019386 764.274902,113.834602 768.403992,114.520355 
	C789.652405,118.049301 809.556213,125.428322 828.247498,136.081482 
	C854.943542,151.296982 874.920532,172.759659 888.308716,200.452606 
	C898.220032,220.953766 903.027527,242.771927 906.194458,265.141907 
	C911.419067,302.045654 912.454346,339.168732 911.758179,376.318115 
	C911.162598,408.097656 911.197754,439.948242 906.519348,471.543335 
	C905.449158,478.770966 904.942017,486.092590 903.417908,493.265381 
	C902.779175,496.271240 903.830322,497.966614 906.945007,498.628906 
	C932.280334,504.016357 949.622498,519.945007 961.348022,541.979553 
	C982.152100,581.074341 980.944885,620.872437 963.197998,660.789490 
	C954.794434,679.691162 942.731934,695.915527 927.039307,709.221375 
	C913.740051,720.497864 899.124878,729.797546 881.564697,733.137085 
	C877.607056,733.889709 877.781311,736.846558 877.390869,739.540649 
	C875.264893,754.209900 872.570557,768.760498 868.526245,783.035278 
	C859.747070,814.021851 846.805481,843.051636 828.519653,869.690125 
	C807.531494,900.265564 781.760132,925.843445 750.855530,946.379517 
	C716.932251,968.921509 679.797058,984.884277 642.359070,1000.319641 
	C623.858398,1007.947266 604.998108,1014.428406 585.696045,1019.690002 
	C578.743652,1021.585144 571.610596,1022.150879 564.543274,1023.221130 
	C561.259399,1023.718506 557.963867,1024.139282 554.336792,1024.797363 
	C529.645752,1025.000000 505.291534,1025.000000 480.468658,1025.000000 
M234.426102,435.767303 
	C228.693741,451.076263 221.287186,465.568146 213.420746,479.878571 
	C203.238327,498.402161 192.985107,516.876465 181.569534,534.672241 
	C179.539993,537.836121 179.092560,541.049927 179.147171,544.618408 
	C179.817581,588.427002 180.495239,632.235413 182.287781,676.016541 
	C183.221390,698.818848 184.676178,721.630188 188.746094,744.080322 
	C195.261917,780.022217 208.376953,813.518799 228.711609,844.011475 
	C249.736435,875.539124 276.483856,901.062744 308.817963,920.902588 
	C330.184326,934.012817 352.769409,944.636902 375.652832,954.618591 
	C411.994873,970.470764 448.519775,985.697083 488.707703,989.474304 
	C521.112793,992.520020 553.000366,990.333435 584.212524,981.451355 
	C616.485107,972.267456 647.021912,958.494019 677.256714,944.076111 
	C695.754456,935.255188 714.329529,926.470337 731.136047,914.705627 
	C784.161987,877.586914 818.325928,827.269470 834.913147,764.795959 
	C843.485107,732.511047 846.018738,699.543884 846.668213,666.346069 
	C847.476440,625.037415 848.135071,583.725830 848.865051,542.415588 
	C848.897766,540.562805 848.785828,538.772156 847.812683,537.105347 
	C842.274536,527.620728 837.149536,517.916626 832.215393,508.102997 
	C823.847412,491.459320 815.150635,474.952057 808.852417,457.381134 
	C800.222412,433.304840 794.625122,408.523224 792.615356,382.975616 
	C792.059937,375.915436 791.437927,369.748901 784.190674,364.774414 
	C754.394897,344.322632 725.358826,322.817139 699.835388,296.960846 
	C694.495056,291.550873 689.022400,285.895447 681.745728,282.982147 
	C673.902466,279.841980 665.687927,275.689117 657.245422,279.742798 
	C626.945679,294.291321 594.708496,302.439850 562.049255,309.154907 
	C522.563538,317.273590 482.422211,318.714508 442.298553,319.887726 
	C416.302917,320.647766 390.334595,319.032288 364.376617,317.913269 
	C353.750580,317.455200 343.122437,316.375580 332.504578,315.582428 
	C318.422485,314.530457 304.175079,313.542786 290.236023,317.217865 
	C279.619415,320.016937 270.917023,325.696503 264.245117,334.615143 
	C255.593399,346.180298 252.182205,359.692352 249.211868,373.384155 
	C244.735153,394.019745 242.565933,415.195557 234.426102,435.767303 
M885.415527,555.882141 
	C884.220642,601.850769 883.025696,647.819397 881.803345,694.842590 
	C889.557373,692.196350 895.126709,688.997192 900.137817,684.920349 
	C919.251831,669.369751 931.965027,649.643494 937.185974,625.535095 
	C942.676636,600.181458 941.696899,575.600403 926.468628,553.151245 
	C920.787415,544.776062 913.929016,538.094055 904.143311,534.830750 
	C894.260742,531.535156 886.132385,537.183289 885.926880,547.473816 
	C885.877136,549.967529 885.633179,552.457458 885.415527,555.882141 
M122.381332,679.112793 
	C128.943512,685.302063 136.366486,690.084656 145.154465,693.617676 
	C146.224808,689.032593 145.208267,685.107422 145.111649,681.186218 
	C143.995987,635.906738 142.925568,590.626038 141.761337,545.347778 
	C141.692703,542.678955 143.103378,539.294800 140.032379,537.529053 
	C135.774673,535.080933 131.587387,531.782715 126.106773,533.443970 
	C115.670059,536.607422 107.313324,542.913452 101.350784,551.823181 
	C94.045479,562.739319 89.658218,574.760742 88.699295,588.157471 
	C86.177269,623.391724 96.104805,653.851562 122.381332,679.112793 
z"/>
<path fill="#FFFFFF" opacity="1.000000" stroke="none" 
	d="
M493.367371,814.978638 
	C476.438263,813.165039 460.499908,809.208252 445.071289,803.219299 
	C441.975433,802.017517 438.919891,800.633118 436.021576,799.017517 
	C430.079742,795.705383 427.299622,790.346558 427.513092,783.697449 
	C427.720306,777.243774 430.856964,772.270447 436.591888,769.137207 
	C443.053192,765.606995 448.633423,769.134338 454.012817,771.865479 
	C474.558197,782.296631 496.354736,786.349182 519.215698,785.262573 
	C543.322449,784.116699 565.665588,777.190796 586.102722,764.332336 
	C589.892517,761.947876 593.370605,759.065674 596.975403,756.390015 
	C607.953064,748.241394 620.516541,752.845703 623.342529,766.154114 
	C624.566284,771.917297 622.128357,776.646179 618.213013,780.579102 
	C607.798340,791.040710 594.956726,797.674500 581.555542,803.365112 
	C557.310608,813.660095 531.900391,816.683899 505.812317,815.470947 
	C501.819000,815.285278 497.822113,815.176453 493.367371,814.978638 
z"/>
<path fill="#FFFFFF" opacity="1.000000" stroke="none" 
	d="
M613.138611,495.981506 
	C603.320923,486.332092 603.611755,474.100983 614.127991,466.040436 
	C629.123352,454.546631 646.315552,448.029724 665.024780,445.925446 
	C686.865662,443.468964 707.855225,446.554321 727.484863,456.987091 
	C734.017456,460.459045 740.172302,464.358826 744.166626,470.868164 
	C748.580750,478.061890 747.793091,486.104675 742.101868,491.967987 
	C736.182678,498.066193 727.900146,499.366150 720.706787,494.665497 
	C713.235535,489.783264 705.353149,485.994904 696.719421,483.865845 
	C684.896362,480.950348 672.948364,480.671265 661.203186,483.935120 
	C651.876526,486.526947 643.055847,490.516113 635.155579,496.277191 
	C627.892456,501.573639 620.655701,501.348450 613.138611,495.981506 
z"/>
<path fill="#FFFFFF" opacity="1.000000" stroke="none" 
	d="
M408.305664,499.829590 
	C402.842529,500.819702 398.509918,499.369904 394.302216,496.458191 
	C368.832214,478.833130 342.293091,475.734100 314.532318,490.993561 
	C312.782654,491.955292 310.997223,492.852081 309.249054,493.816467 
	C300.572754,498.602692 291.842926,497.028076 286.688538,489.733551 
	C280.697937,481.255646 281.513184,470.747742 289.366119,464.636261 
	C302.464569,454.442627 317.319580,447.873932 333.867767,445.845093 
	C357.903015,442.898224 381.031403,445.918610 402.593384,457.623993 
	C410.993347,462.184082 419.312683,466.974487 422.139526,477.081879 
	C424.964874,487.183838 419.666351,495.958649 408.305664,499.829590 
z"/>
<path fill="#FFFFFF" opacity="1.000000" stroke="none" 
	d="
M351.611572,604.481140 
	C335.798920,602.563721 324.624695,594.430115 320.395172,579.717102 
	C315.161133,561.509644 320.180786,547.308472 336.022339,537.347595 
	C349.682465,528.758301 368.746368,531.732849 380.535889,543.675476 
	C391.327728,554.607422 393.885345,570.848694 387.077240,585.213623 
	C381.168671,597.680542 366.235504,605.920105 351.611572,604.481140 
z"/>
<path fill="#FFFFFF" opacity="1.000000" stroke="none" 
	d="
M692.151367,601.396729 
	C676.528503,607.720947 662.378967,606.215515 650.232117,594.611206 
	C639.459412,584.319641 636.315857,567.229553 642.351624,555.080627 
	C649.900452,539.886169 664.249207,531.264709 678.757507,533.206055 
	C696.124756,535.529968 707.714722,545.817505 711.033813,561.855408 
	C714.435120,578.290649 707.670410,592.662231 692.151367,601.396729 
z"/>
<path fill="#FFFFFF" opacity="1.000000" stroke="none" 
	d="
M552.093872,630.219116 
	C554.949707,643.205933 555.556335,655.588867 549.772583,667.675415 
	C541.013733,685.979065 519.140808,695.873230 500.843567,689.597534 
	C494.084900,687.279480 490.229431,681.100098 490.855469,673.589233 
	C491.439209,666.585754 496.022858,661.706421 503.159607,660.635071 
	C505.288849,660.315369 507.479156,659.994690 509.607788,660.146606 
	C520.948181,660.956238 526.447510,649.178711 522.940796,639.918213 
	C520.634155,633.826904 516.195923,629.923401 510.532806,626.888672 
	C501.128296,621.848816 498.641510,615.012390 502.599030,606.259644 
	C505.015991,600.914001 509.329803,598.222168 515.098328,597.723999 
	C524.339050,596.926025 531.469360,601.268311 537.821960,607.257507 
	C544.478394,613.533142 549.262695,621.050354 552.093872,630.219116 
z"/>
</svg>
